<?xml version="1.0" standalone="no"?>
<!DOCTYPE svg PUBLIC "-//W3C//DTD SVG 20010904//EN"
 "http://www.w3.org/TR/2001/REC-SVG-20010904/DTD/svg10.dtd">
<svg version="1.0" xmlns="http://www.w3.org/2000/svg"
 width="512.000000pt" height="512.000000pt" viewBox="0 0 512.000000 512.000000"
 preserveAspectRatio="xMidYMid meet">
<metadata>
Created by potrace 1.14, written by Peter Selinger 2001-2017
</metadata>
<g transform="translate(0.000000,512.000000) scale(0.100000,-0.100000)"
fill="#000000" stroke="none">
<path d="M2230 5100 c-22 -22 -67 -115 -107 -219 -103 -272 -135 -556 -83
-730 39 -133 147 -256 285 -325 70 -36 172 -69 184 -61 19 11 31 -24 55 -165
14 -85 28 -175 31 -199 3 -23 7 -55 9 -70 3 -14 7 -55 11 -91 3 -36 8 -83 11
-105 2 -22 7 -74 9 -115 3 -41 8 -92 11 -112 3 -21 3 -38 1 -38 -3 0 -24 26
-48 58 -24 31 -63 78 -86 103 l-44 47 7 63 c9 78 9 70 0 149 -26 242 -171 412
-418 491 -179 57 -482 71 -726 33 -47 -7 -82 -39 -82 -75 0 -43 67 -224 130
-350 127 -257 280 -429 442 -499 70 -30 98 -35 203 -33 108 1 197 23 285 69
l65 35 43 -48 c57 -65 157 -206 203 -289 l39 -69 -5 -235 c-3 -129 -7 -264
-10 -300 -13 -173 -23 -281 -30 -335 -1 -11 -3 -27 -4 -35 -1 -10 -9 -5 -25
15 -13 17 -42 50 -64 74 -39 42 -39 45 -44 135 -8 144 -73 314 -176 461 -52
74 -180 195 -253 238 -78 46 -194 83 -316 101 -122 18 -378 13 -463 -9 -8 -2
-33 -7 -55 -10 -40 -5 -62 -9 -120 -21 -113 -22 -432 -125 -540 -173 -22 -10
-63 -29 -92 -41 -63 -27 -81 -62 -59 -113 19 -46 150 -228 252 -354 104 -126
287 -311 376 -379 35 -27 65 -51 68 -54 15 -18 185 -118 254 -151 266 -124
520 -110 791 44 91 52 136 87 209 160 l60 60 39 -44 c21 -24 57 -81 79 -127
36 -74 40 -89 35 -135 -7 -63 -44 -267 -57 -316 -5 -20 -12 -52 -15 -71 -8
-54 -59 -262 -94 -390 -18 -63 -36 -131 -41 -150 -5 -19 -30 -93 -56 -165 -63
-177 -61 -213 14 -232 47 -11 73 24 121 158 44 126 99 311 142 473 l23 89 90
75 c150 124 238 186 251 176 7 -5 39 -31 71 -57 77 -63 236 -139 349 -168 88
-21 269 -31 335 -16 320 68 675 421 937 932 76 148 96 204 83 235 -6 15 -21
32 -33 38 -46 24 -307 82 -432 97 -27 4 -57 8 -65 10 -28 7 -214 19 -295 19
-468 -1 -754 -133 -907 -421 -77 -144 -109 -261 -114 -413 l-3 -105 -88 -68
c-127 -98 -125 -97 -118 -45 4 23 8 45 10 48 2 3 6 21 9 40 3 19 14 91 25 160
12 69 23 141 26 160 11 78 32 258 40 345 12 139 14 162 20 275 4 63 8 142 10
175 8 129 86 298 208 448 l39 48 32 -24 c136 -104 359 -147 508 -96 66 22 198
105 259 162 115 109 248 295 337 473 65 129 67 138 46 173 -14 24 -31 33 -93
50 -165 44 -296 62 -471 65 -296 5 -493 -75 -608 -248 -74 -111 -103 -208
-106 -352 l-1 -92 -45 -48 c-25 -27 -56 -66 -70 -86 -14 -21 -27 -38 -30 -38
-3 0 -6 30 -6 68 -1 59 -5 125 -19 332 -2 30 -7 75 -10 100 -3 25 -7 68 -10
95 -7 78 -16 149 -20 165 -2 8 -7 39 -10 68 -3 30 -16 112 -29 183 l-23 130
67 67 c187 188 233 423 128 654 -74 161 -255 368 -455 519 -124 94 -157 105
-193 69z"/>
</g>
</svg>
